<?xml version="1.0" encoding="iso-8859-1"?>
<!-- Generator: Adobe Illustrator 19.0.0, SVG Export Plug-In . SVG Version: 6.00 Build 0)  -->
<svg version="1.1" id="Capa_1" xmlns="http://www.w3.org/2000/svg" xmlns:xlink="http://www.w3.org/1999/xlink" x="0px" y="0px"
	 viewBox="0 0 512 512" style="enable-background:new 0 0 512 512;" xml:space="preserve">
<g>
	<g>
		<g>
			<path d="M193.941,205.153c-4.142,0-7.5,3.358-7.5,7.5v10.301c0,4.142,3.358,7.5,7.5,7.5c4.142,0,7.5-3.358,7.5-7.5v-10.301
				C201.441,208.511,198.083,205.153,193.941,205.153z"/>
			<path d="M277.29,217.757c-3.123-2.722-7.861-2.396-10.582,0.726c-2.704,3.103-6.607,4.882-10.708,4.882
				s-8.004-1.779-10.708-4.882c-2.722-3.123-7.46-3.448-10.582-0.726c-3.122,2.721-3.448,7.459-0.726,10.582
				c5.553,6.372,13.578,10.026,22.016,10.026s16.462-3.654,22.016-10.026C280.737,225.216,280.412,220.479,277.29,217.757z"/>
			<path d="M402.653,166.689H386.06c-8.362,0-15.164,6.803-15.164,15.165v16.592c0,8.362,6.803,15.165,15.164,15.165h16.593
				c8.362,0,15.165-6.803,15.165-15.165v-16.592C417.818,173.492,411.015,166.689,402.653,166.689z M402.818,198.446
				c0,0.091-0.074,0.165-0.165,0.165H386.06c-0.091,0-0.164-0.074-0.164-0.165v-16.592c0-0.091,0.074-0.165,0.164-0.165h16.593
				c0.091,0,0.165,0.074,0.165,0.165V198.446z"/>
			<path d="M318.059,205.153c-4.142,0-7.5,3.358-7.5,7.5v10.301c0,4.142,3.358,7.5,7.5,7.5c4.142,0,7.5-3.358,7.5-7.5v-10.301
				C325.559,208.511,322.201,205.153,318.059,205.153z"/>
			<path d="M481.995,346.404H476.5V199.287c0-4.142-3.358-7.5-7.5-7.5c-4.142,0-7.5,3.358-7.5,7.5v147.118h-17.478V144.126
				c0-11.853-9.644-21.497-21.497-21.497H89.476c-11.854,0-21.497,9.644-21.497,21.497v202.278H50.5V137.942
				c0-18.081,14.71-32.792,32.791-32.792h345.417c18.081,0,32.792,14.71,32.792,32.792v18.954c0,4.142,3.358,7.5,7.5,7.5
				c4.142,0,7.5-3.358,7.5-7.5v-18.954c0-26.353-21.44-47.792-47.792-47.792H83.291c-26.352,0-47.791,21.439-47.791,47.792v208.462
				h-5.495C13.46,346.404,0,359.865,0,376.41v15.435c0,16.545,13.46,30.005,30.005,30.005h30.721c4.142,0,7.5-3.358,7.5-7.5
				c0-4.142-3.358-7.5-7.5-7.5H30.005c-8.274,0-15.005-6.731-15.005-15.005V376.41c0-8.274,6.731-15.005,15.005-15.005h161.611
				l1.619,6.116c4.341,16.399,19.221,27.852,36.184,27.852h53.161c16.963,0,31.843-11.453,36.184-27.853l1.619-6.115h161.611
				c8.274,0,15.005,6.731,15.005,15.005v15.435c0,8.274-6.731,15.005-15.005,15.005H108.686c-4.142,0-7.5,3.358-7.5,7.5
				c0,4.142,3.358,7.5,7.5,7.5h373.309c16.545,0,30.005-13.46,30.005-30.005V376.41C512,359.865,498.54,346.404,481.995,346.404z
				 M304.264,363.681c-2.601,9.828-11.518,16.691-21.683,16.691H229.42c-10.165,0-19.082-6.863-21.683-16.69l-0.603-2.277h97.733
				L304.264,363.681z M130.235,346.404v-14.985c0-1.768,1.438-3.206,3.206-3.206h245.118c1.768,0,3.205,1.438,3.205,3.206v14.985
				H130.235z M429.022,346.404h-32.257v-14.985c0-10.039-8.167-18.206-18.205-18.206H133.441c-10.039,0-18.206,8.167-18.206,18.206
				v14.985H82.979V144.126c0-3.582,2.915-6.497,6.497-6.497h333.049c3.582,0,6.497,2.915,6.497,6.497V346.404z"/>
			<path d="M402.653,227.197H386.06c-8.362,0-15.164,6.803-15.164,15.165v16.592c0,8.362,6.803,15.165,15.164,15.165h16.593
				c8.362,0,15.165-6.803,15.165-15.165v-16.592C417.818,234,411.015,227.197,402.653,227.197z M402.818,258.954
				c0,0.091-0.074,0.165-0.165,0.165H386.06c-0.091,0-0.164-0.074-0.164-0.165v-16.592c0-0.091,0.074-0.165,0.164-0.165h16.593
				c0.091,0,0.165,0.074,0.165,0.165V258.954z"/>
		</g>
	</g>
</g>
<g>
</g>
<g>
</g>
<g>
</g>
<g>
</g>
<g>
</g>
<g>
</g>
<g>
</g>
<g>
</g>
<g>
</g>
<g>
</g>
<g>
</g>
<g>
</g>
<g>
</g>
<g>
</g>
<g>
</g>
</svg>
